# Blender v2.72 (sub 0) OBJ File: 'TexturedCube.blend'
# www.blender.org
mtllib TexturedCube.mtl
o Cube
v 1.000000 1.000000 -1.000000
v -1.000000 1.000000 -1.000000
v -1.000000 1.000000 1.000000
v 1.000000 1.000000 1.000000
v 0.999999 -1.000000 -1.000000
v -1.000001 -1.000000 -0.999999
v -1.000000 -1.000000 1.000000
v 1.000000 -1.000000 1.000000
vt 0.999816 -0.008852
vt 0.999816 0.990948
vt 0.000016 0.990949
vt 0.000016 -0.008851
vt 0.999900 0.000100
vt 0.999900 0.999900
vt 0.000100 0.999900
vt 0.000100 0.000100
vt 0.005990 0.993590
vt 0.005989 0.006131
vt 0.993448 0.006131
vt 0.993728 0.993869
vt 0.006269 0.993869
vt 0.993728 0.006410
vn -0.000000 0.000000 -1.000000
vn -1.000000 0.000000 0.000000
vn 1.000000 -0.000000 -0.000000
vn 0.000000 -1.000000 -0.000000
vn 0.000000 0.000000 1.000000
vn 0.000000 1.000000 0.000000
usemtl Front
s off
f 1/1/1 5/2/1 6/3/1
f 2/4/1 1/1/1 6/3/1
usemtl Left
f 2/5/2 6/6/2 7/7/2
f 3/8/2 2/5/2 7/7/2
usemtl Right
f 1/6/3 4/7/3 8/8/3
f 5/5/3 1/6/3 8/8/3
usemtl Top
f 8/7/4 7/8/4 6/5/4
f 5/6/4 8/7/4 6/5/4
usemtl Back
f 7/8/5 8/5/5 4/6/5
f 3/7/5 7/8/5 4/6/5
usemtl Bottom
f 2/9/6 3/10/6 4/11/6
f 1/12/6 2/13/6 4/14/6
